<svg width="24" height="24" viewBox="0 0 24 24" fill="none" xmlns="http://www.w3.org/2000/svg">
<path d="M11.2322 7.30359C11.2322 9.47329 9.47329 11.2322 7.30359 11.2322C5.13389 11.2322 3.375 9.47329 3.375 7.30359C3.375 5.13389 5.13389 3.375 7.30359 3.375C9.47329 3.375 11.2322 5.13389 11.2322 7.30359Z" fill="white"/>
<path d="M11.2322 16.6964C11.2322 18.8661 9.47329 20.625 7.30359 20.625C5.13389 20.625 3.375 18.8661 3.375 16.6964C3.375 14.5267 5.13389 12.7678 7.30359 12.7678C9.47329 12.7678 11.2322 14.5267 11.2322 16.6964Z" fill="white"/>
<path d="M20.625 7.30359C20.625 9.47329 18.8661 11.2322 16.6964 11.2322C14.5267 11.2322 12.7678 9.47329 12.7678 7.30359C12.7678 5.13389 14.5267 3.375 16.6964 3.375C18.8661 3.375 20.625 5.13389 20.625 7.30359Z" fill="white"/>
<path d="M20.625 16.6964C20.625 18.8661 18.8661 20.625 16.6964 20.625C14.5267 20.625 12.7678 18.8661 12.7678 16.6964C12.7678 14.5267 14.5267 12.7678 16.6964 12.7678C18.8661 12.7678 20.625 14.5267 20.625 16.6964Z" fill="white"/>
</svg>
