<svg width="14" height="14" viewBox="0 0 14 14" fill="none" xmlns="http://www.w3.org/2000/svg">
<path d="M10.4685 6.65548L4.30521 1.84162C4.28911 1.82894 4.26975 1.82106 4.24937 1.81888C4.22899 1.81671 4.20841 1.82033 4.18999 1.82932C4.17157 1.83832 4.15607 1.85232 4.14525 1.86973C4.13444 1.88714 4.12875 1.90725 4.12885 1.92775V2.98459C4.12885 3.05158 4.16029 3.11584 4.21224 3.15685L9.13411 7.00002L4.21224 10.8432C4.15892 10.8842 4.12885 10.9485 4.12885 11.0154V12.0723C4.12885 12.1639 4.23412 12.2145 4.30521 12.1584L10.4685 7.34455C10.5209 7.30369 10.5632 7.25142 10.5924 7.19172C10.6215 7.13201 10.6367 7.06645 10.6367 7.00002C10.6367 6.93358 10.6215 6.86802 10.5924 6.80832C10.5632 6.74862 10.5209 6.69635 10.4685 6.65548Z" fill="black" fill-opacity="0.88"/>
</svg>
