<svg width="16" height="16" viewBox="0 0 16 16" fill="none" xmlns="http://www.w3.org/2000/svg">
<path d="M13.9135 11.8016L8.40415 4.20625C8.20415 3.93125 7.79478 3.93125 7.59634 4.20625L2.0854 11.8016C2.07184 11.8202 2.06372 11.8423 2.06193 11.8653C2.06014 11.8883 2.06476 11.9114 2.07528 11.932C2.0858 11.9525 2.1018 11.9697 2.12151 11.9817C2.14123 11.9938 2.16388 12.0001 2.18696 12H3.35884C3.43853 12 3.51353 11.9609 3.5604 11.8969L7.99946 5.77812L12.4385 11.8969C12.4854 11.9609 12.5604 12 12.6401 12H13.812C13.9135 12 13.9729 11.8844 13.9135 11.8016Z" fill="white"/>
</svg>
