<svg width="16" height="17" viewBox="0 0 16 17" fill="none" xmlns="http://www.w3.org/2000/svg">
<path d="M14.5 3H1.5C1.22344 3 1 3.22344 1 3.5V13.5C1 13.7766 1.22344 14 1.5 14H14.5C14.7766 14 15 13.7766 15 13.5V3.5C15 3.22344 14.7766 3 14.5 3ZM13.875 4.73125V12.875H2.125V4.73125L1.69375 4.39531L2.30781 3.60625L2.97656 4.12656H13.025L13.6938 3.60625L14.3078 4.39531L13.875 4.73125V4.73125ZM13.025 4.125L8 8.03125L2.975 4.125L2.30625 3.60469L1.69219 4.39375L2.12344 4.72969L7.46094 8.87969C7.61444 8.99894 7.80328 9.06367 7.99766 9.06367C8.19203 9.06367 8.38088 8.99894 8.53438 8.87969L13.875 4.73125L14.3062 4.39531L13.6922 3.60625L13.025 4.125Z" fill="black" fill-opacity="0.45"/>
</svg>
