<svg width="16" height="17" viewBox="0 0 16 17" fill="none" xmlns="http://www.w3.org/2000/svg">
<g clip-path="url(#clip0_24401_25662)">
<path d="M14 5.83301C13.0334 5.83301 12.4934 6.79301 12.7134 7.50634L10.3467 9.87967C10.1467 9.81967 9.85335 9.81967 9.65335 9.87967L7.95335 8.17967C8.18002 7.46634 7.64002 6.49967 6.66669 6.49967C5.70002 6.49967 5.15335 7.45967 5.38002 8.17967L2.34002 11.213C1.62669 10.993 0.666687 11.533 0.666687 12.4997C0.666687 13.233 1.26669 13.833 2.00002 13.833C2.96669 13.833 3.50669 12.873 3.28669 12.1597L6.32002 9.11967C6.52002 9.17967 6.81335 9.17967 7.01335 9.11967L8.71335 10.8197C8.48669 11.533 9.02669 12.4997 10 12.4997C10.9667 12.4997 11.5134 11.5397 11.2867 10.8197L13.66 8.45301C14.3734 8.67301 15.3334 8.13301 15.3334 7.16634C15.3334 6.43301 14.7334 5.83301 14 5.83301Z" fill="#C5C5C5"/>
<path d="M10 6.5L10.6267 5.12L12 4.5L10.6267 3.88L10 2.5L9.38667 3.88L8 4.5L9.38667 5.12L10 6.5Z" fill="#C5C5C5"/>
<path d="M2.33335 7.83333L2.66669 6.5L4.00002 6.16667L2.66669 5.83333L2.33335 4.5L2.00002 5.83333L0.666687 6.16667L2.00002 6.5L2.33335 7.83333Z" fill="#C5C5C5"/>
</g>
<defs>
<clipPath id="clip0_24401_25662">
<rect width="16" height="16" fill="white" transform="translate(0 0.5)"/>
</clipPath>
</defs>
</svg>
