<svg width="16" height="17" viewBox="0 0 16 17" fill="none" xmlns="http://www.w3.org/2000/svg">
<g clip-path="url(#clip0_24401_39513)">
<path d="M12.9333 6.1L9.33331 2.5H4.53331C4.21505 2.5 3.90983 2.62643 3.68478 2.85147C3.45974 3.07652 3.33331 3.38174 3.33331 3.7V13.3C3.33331 13.6183 3.45974 13.9235 3.68478 14.1485C3.90983 14.3736 4.21505 14.5 4.53331 14.5H11.7333C12.0516 14.5 12.3568 14.3736 12.5818 14.1485C12.8069 13.9235 12.9333 13.6183 12.9333 13.3V6.1ZM6.33331 12.7H5.13331V7.3H6.33331V12.7ZM8.73331 12.7H7.53331V9.1H8.73331V12.7ZM11.1333 12.7H9.93331V10.9H11.1333V12.7ZM9.33331 6.7H8.73331V3.7L11.7333 6.7H9.33331Z" fill="#C5C5C5"/>
</g>
<defs>
<clipPath id="clip0_24401_39513">
<rect width="16" height="16" fill="white" transform="translate(0 0.5)"/>
</clipPath>
</defs>
</svg>
