<svg width="16" height="17" viewBox="0 0 16 17" fill="none" xmlns="http://www.w3.org/2000/svg">
<path d="M13 7.75H11.9375V4.25C11.9375 3.14531 11.0422 2.25 9.9375 2.25H6.0625C4.95781 2.25 4.0625 3.14531 4.0625 4.25V7.75H3C2.72344 7.75 2.5 7.97344 2.5 8.25V14.25C2.5 14.5266 2.72344 14.75 3 14.75H13C13.2766 14.75 13.5 14.5266 13.5 14.25V8.25C13.5 7.97344 13.2766 7.75 13 7.75ZM5.1875 4.25C5.1875 3.76719 5.57969 3.375 6.0625 3.375H9.9375C10.4203 3.375 10.8125 3.76719 10.8125 4.25V7.75H5.1875V4.25ZM12.375 13.625H3.625V8.875H12.375V13.625ZM7.5625 11.4531V12.2812C7.5625 12.35 7.61875 12.4062 7.6875 12.4062H8.3125C8.38125 12.4062 8.4375 12.35 8.4375 12.2812V11.4531C8.56648 11.3605 8.66275 11.2294 8.71245 11.0786C8.76216 10.9278 8.76273 10.7651 8.71409 10.614C8.66545 10.4628 8.57011 10.331 8.44179 10.2375C8.31346 10.144 8.15878 10.0936 8 10.0936C7.84122 10.0936 7.68654 10.144 7.55821 10.2375C7.42989 10.331 7.33455 10.4628 7.28591 10.614C7.23727 10.7651 7.23784 10.9278 7.28755 11.0786C7.33725 11.2294 7.43352 11.3605 7.5625 11.4531V11.4531Z" fill="black" fill-opacity="0.45"/>
</svg>
