<svg width="14" height="14" viewBox="0 0 14 14" fill="none" xmlns="http://www.w3.org/2000/svg">
<path d="M9.89873 2.98424V1.92741C9.89873 1.8358 9.79346 1.78522 9.72236 1.84127L3.55908 6.65514C3.50672 6.69586 3.46435 6.74801 3.4352 6.8076C3.40605 6.86719 3.3909 6.93265 3.3909 6.99899C3.3909 7.06532 3.40605 7.13079 3.4352 7.19038C3.46435 7.24997 3.50672 7.30211 3.55908 7.34283L9.72236 12.1567C9.79483 12.2128 9.89873 12.1622 9.89873 12.0706V11.0137C9.89873 10.9467 9.86729 10.8825 9.81533 10.8415L4.89346 6.99967L9.81533 3.15651C9.86729 3.11549 9.89873 3.05123 9.89873 2.98424Z" fill="black" fill-opacity="0.25"/>
</svg>
