<svg width="78" height="69" viewBox="0 0 78 69" fill="none" xmlns="http://www.w3.org/2000/svg">
<path d="M1.00021 54.9173C1 54.6494 1 54.3732 1 54.0882V14.2727C1 9.62708 1 7.30256 1.91079 5.52818C2.71194 3.96739 3.98938 2.69935 5.56173 1.90409C7.34926 1 9.69101 1 14.371 1H62.838C67.518 1 69.8568 1 71.6443 1.90409C73.2167 2.69935 74.4963 3.96739 75.2975 5.52818C76.2074 7.30082 76.2074 9.62253 76.2074 14.259V54.1002C76.2074 56.1118 76.2074 57.687 76.1331 58.9707M1.00021 54.9173C1.00343 59.0163 1.05587 61.1622 1.91079 62.8278C2.71194 64.3885 3.98938 65.6608 5.56173 66.4561C7.34751 67.3593 9.68643 67.3593 14.3573 67.3593H62.8521C67.523 67.3593 69.8585 67.3593 71.6443 66.4561C73.2167 65.6608 74.4963 64.3885 75.2975 62.8278C75.8126 61.8242 76.0361 60.6457 76.1331 58.9707M1.00021 54.9173L20.9215 31.8467L20.9274 31.8403C22.6943 29.7941 23.5792 28.7693 24.6288 28.3999C25.5508 28.0755 26.5574 28.083 27.4748 28.4202C28.5202 28.8044 29.391 29.8409 31.1327 31.9156L42.2934 45.2098C43.9056 47.1303 44.7164 48.0961 45.7009 48.4837C46.5692 48.8256 47.5268 48.8642 48.4228 48.6017C49.4427 48.3029 50.3405 47.4118 52.1359 45.6297L54.2127 43.5681C56.0407 41.7536 56.9546 40.847 57.9892 40.5507C58.8977 40.2904 59.8691 40.3463 60.7432 40.7046C61.7384 41.1125 62.5455 42.1111 64.1604 44.1149L76.1331 58.9707M76.1331 58.9707L76.2073 59.0627M51.1382 25.8847C48.8307 25.8847 46.9601 24.0279 46.9601 21.7373C46.9601 19.4467 48.8307 17.5898 51.1382 17.5898C53.4458 17.5898 55.3164 19.4467 55.3164 21.7373C55.3164 24.0279 53.4458 25.8847 51.1382 25.8847Z" stroke="black" stroke-width="2" stroke-linecap="round" stroke-linejoin="round"/>
</svg>
